@startuml
'https://plantuml.com/class-diagram
'42D65B
'09B327
interface GUI #ffb480 {
    + update()
}

interface Invoker #ffb480 {
    + setCommand(Command c)
    + executeCommand()
}

interface Command #ffb480 {
    + execute()
}

interface Receiver #ffb480 {
    + copy(int start, int stop)
    + insert(String c, int position);
    + insertClipboard(int position)
    + delete(int start, int stop)
}

interface Clipboard #ffb480 {
    + setContent(string)
    + getContent()
}

interface Buffer #ffb480 {
    + addContent(String s, int position)
    + deleteContent(int start, int stop)
    + getContent()
}

interface Originator #59adf6 {
    + save();
    + restore();
}

interface Memento #59adf6 {
    + getContent()
    + getCommand()
    + equals(memento)
}

interface CareTaker #59adf6 {
    + addMemento(Memento)
    + getMemento()
    + showMemento()
    + getMementoList(memento)
    + renew()
}

class MyGUIV2 #ff6961;line.bold:C80900 {
    + getInstance()
    + update()
}

class Engine #ff6961 {
      + copy(int start, int stop)
      + insert(String c, int position);
      + insertClipboard(int position)
      + delete(int start, int stop)
}


class Copy #ff6961 {
    - start
    - stop
    - receiver
    + execute()
}

class Cut #ff6961 {
    - start
    - stop
    - receiver
    + execute()
}

class Paste #ff6961 {
    - position
    - receiver
    + execute()
}

class Replace #ff6961 {
    - start
    - stop
    - receiver
    + execute()
}

class Delete #ff6961 {
    - position
    - receiver
    + execute()
}

class Insert #ff6961 {
    + position
    - insert
    - receiver
    + execute()
}

class Undo #ff6961 {
    - receiver
    + execute()
}

class Redo #ff6961 {
    - receiver
    + execute()
}

class Script #ff6961;line.bold:C80900 {
    - receiver
    + execute()
}

class Load #ff6961 {
    - receiver
    + execute()
    - summonCommand(String line)
    - getString(String s)
    - getLineList(String line)
}

class SimpleBuffer #ff6961;line.bold:C80900 {
    - content
    + getInstance()
    + addContent(String s, int position)
    + deleteContent(int start, int stop)
    + getContent()
}

class SimpleClipboard #ff6961;line.bold:C80900 {
    - content
    + getInstance()
    + setContent(String s)
    + getContent()
}

class DummyInvoker #ff6961 {
    + setCommand(Command c)
    + executeCommand()
}

class MyOriginator #176EBB {
    + curentState;
    + save();
    + restore();
}

class Snapshot #176EBB {
    - content
    - command
    + getContent()
    + getCommand()
    + equals(memento)
}

class StackCareTaker #1677CB;line.bold:002D55 {
    - commands
    - old
    - instance
    + getInstance()
    + addMemento(Memento)
    + getMemento()
    + showMemento()
    + getMementoList(memento)
    + renew()
}

GUI --- "1"Buffer
GUI --"1" Invoker

Receiver "1"- Command
Receiver -down-"1" Buffer
Receiver --down"1" Clipboard

MyGUIV2 -right|> GUI

Engine -right-|> Receiver

Invoker "1"--left Command

Copy --"1" Originator
Paste --"1" Originator
Replace --"1" Originator
Delete --"1" Originator
Cut --"1" Originator
Insert --"1" Originator
Undo --"1" Originator
Redo --"1" Originator
Load --"1" Originator

CareTaker "1"-up-"0..*" Originator
Memento -left-"0..*" CareTaker

Script --"1" CareTaker

Copy -up-|> Command
Paste -up-|> Command
Replace --up-|> Command
Delete -up-|> Command
Cut --up-|> Command
Insert -up--|> Command
Undo -up-|> Command
Redo -up--|> Command
Script -up-|> Command
Load -up-|> Command

SimpleBuffer -up-|> Buffer
SimpleClipboard -up-|> Clipboard

DummyInvoker -left|> Invoker

MyOriginator -right-|> Originator
StackCareTaker -|> CareTaker
Snapshot --|> Memento
@enduml
